<svg width="128" height="29" viewBox="0 0 128 29" fill="none" xmlns="http://www.w3.org/2000/svg">
<path d="M118.602 28.6C117.908 28.6 117.175 28.5333 116.402 28.4C115.655 28.2667 114.908 28.0133 114.162 27.64C113.442 27.24 112.762 26.68 112.122 25.96L112.082 28.32H106.602V0H112.202V9.72C113.002 8.76 113.988 8.05333 115.162 7.6C116.362 7.12 117.602 6.88 118.882 6.88C120.962 6.88 122.668 7.36 124.002 8.32C125.335 9.25333 126.322 10.5333 126.962 12.16C127.628 13.7867 127.962 15.6533 127.962 17.76C127.962 19.8133 127.628 21.6667 126.962 23.32C126.295 24.9467 125.268 26.24 123.882 27.2C122.522 28.1333 120.762 28.6 118.602 28.6ZM117.402 23.6C118.708 23.6 119.722 23.3067 120.442 22.72C121.162 22.1333 121.668 21.3867 121.962 20.48C122.255 19.5733 122.402 18.6267 122.402 17.64C122.402 16.6533 122.242 15.7333 121.922 14.88C121.602 14 121.068 13.3067 120.322 12.8C119.602 12.2667 118.628 12 117.402 12C116.282 12 115.322 12.28 114.522 12.84C113.748 13.3733 113.162 14.08 112.762 14.96C112.362 15.84 112.162 16.7867 112.162 17.8C112.162 18.8133 112.335 19.7733 112.682 20.68C113.055 21.56 113.628 22.2667 114.402 22.8C115.175 23.3333 116.175 23.6 117.402 23.6Z" fill="#24282E"/>
<path d="M93.2337 28.6C91.0204 28.6 89.1404 28.16 87.5937 27.28C86.047 26.4 84.8604 25.16 84.0337 23.56C83.207 21.9333 82.7937 20.04 82.7937 17.88C82.7937 15.6933 83.2204 13.7867 84.0737 12.16C84.927 10.5067 86.127 9.21334 87.6737 8.28C89.247 7.34667 91.1004 6.88 93.2337 6.88C94.8337 6.88 96.2337 7.14667 97.4337 7.68C98.6604 8.21334 99.687 8.96001 100.514 9.92001C101.367 10.88 101.994 12 102.394 13.28C102.82 14.5333 103.02 15.8933 102.994 17.36C102.994 17.7333 102.98 18.0933 102.954 18.44C102.927 18.7867 102.874 19.1333 102.794 19.48H88.3537C88.4337 20.28 88.6604 21.0133 89.0337 21.68C89.407 22.3467 89.927 22.88 90.5937 23.28C91.287 23.6533 92.1404 23.84 93.1537 23.84C93.8204 23.84 94.4337 23.7733 94.9937 23.64C95.5537 23.48 96.0337 23.24 96.4337 22.92C96.8337 22.6 97.1137 22.2267 97.2737 21.8H102.794C102.447 23.3733 101.794 24.6667 100.834 25.68C99.9004 26.6933 98.767 27.44 97.4337 27.92C96.1004 28.3733 94.7004 28.6 93.2337 28.6ZM88.4737 15.56H97.6337C97.607 14.84 97.4204 14.1733 97.0737 13.56C96.7537 12.92 96.2604 12.4133 95.5937 12.04C94.9537 11.64 94.127 11.44 93.1137 11.44C92.1004 11.44 91.247 11.64 90.5537 12.04C89.887 12.44 89.3804 12.96 89.0337 13.6C88.7137 14.2133 88.527 14.8667 88.4737 15.56Z" fill="#24282E"/>
<path d="M53.4264 28.32L46.7864 7.24002H52.9064L56.8264 21.92L60.9864 7.24002H67.2664L71.4264 21.92L75.2664 7.24002H81.3064L74.6664 28.32H68.2264L64.0264 14.08L59.8664 28.32H53.4264Z" fill="#24282E"/>
<path d="M34.8009 28.6C32.6676 28.6 30.8009 28.1733 29.2009 27.32C27.6009 26.44 26.3609 25.2 25.4809 23.6C24.6009 21.9733 24.1609 20.0533 24.1609 17.84C24.1609 15.5733 24.6009 13.6267 25.4809 12C26.3876 10.3467 27.6409 9.08 29.2409 8.2C30.8409 7.32 32.6809 6.88 34.7609 6.88C36.8942 6.88 38.7476 7.33334 40.3209 8.24C41.8942 9.14667 43.1209 10.4133 44.0009 12.04C44.8809 13.6667 45.3209 15.6133 45.3209 17.88C45.3209 20.0933 44.8809 22.0133 44.0009 23.64C43.1476 25.24 41.9342 26.4667 40.3609 27.32C38.8142 28.1733 36.9609 28.6 34.8009 28.6ZM34.7209 23.48C35.9476 23.48 36.9342 23.2133 37.6809 22.68C38.4276 22.1467 38.9609 21.4533 39.2809 20.6C39.6276 19.72 39.8009 18.8 39.8009 17.84C39.8009 16.88 39.6276 15.96 39.2809 15.08C38.9609 14.2 38.4276 13.48 37.6809 12.92C36.9609 12.3333 35.9742 12.04 34.7209 12.04C33.5209 12.04 32.5476 12.3333 31.8009 12.92C31.0542 13.48 30.5076 14.2 30.1609 15.08C29.8409 15.96 29.6809 16.88 29.6809 17.84C29.6809 18.8267 29.8409 19.7467 30.1609 20.6C30.5076 21.4533 31.0542 22.1467 31.8009 22.68C32.5476 23.2133 33.5209 23.48 34.7209 23.48Z" fill="#F1531E"/>
<path d="M12 28.6C11.3067 28.6 10.5733 28.5333 9.8 28.4C9.05333 28.2667 8.30667 28.0133 7.56 27.64C6.84 27.24 6.16 26.68 5.52 25.96L5.48 28.32H0V0H5.6V9.72C6.4 8.76 7.38667 8.05333 8.56 7.6C9.76 7.12 11 6.88 12.28 6.88C14.36 6.88 16.0667 7.36 17.4 8.32C18.7333 9.25333 19.72 10.5333 20.36 12.16C21.0267 13.7867 21.36 15.6533 21.36 17.76C21.36 19.8133 21.0267 21.6667 20.36 23.32C19.6933 24.9467 18.6667 26.24 17.28 27.2C15.92 28.1333 14.16 28.6 12 28.6ZM10.8 23.6C12.1067 23.6 13.12 23.3067 13.84 22.72C14.56 22.1333 15.0667 21.3867 15.36 20.48C15.6533 19.5733 15.8 18.6267 15.8 17.64C15.8 16.6533 15.64 15.7333 15.32 14.88C15 14 14.4667 13.3067 13.72 12.8C13 12.2667 12.0267 12 10.8 12C9.68 12 8.72 12.28 7.92 12.84C7.14667 13.3733 6.56 14.08 6.16 14.96C5.76 15.84 5.56 16.7867 5.56 17.8C5.56 18.8133 5.73333 19.7733 6.08 20.68C6.45333 21.56 7.02667 22.2667 7.8 22.8C8.57333 23.3333 9.57333 23.6 10.8 23.6Z" fill="#24282E"/>
</svg>
