<svg xmlns="http://www.w3.org/2000/svg" viewBox="0 0 64 64">
  <rect width="64" height="64" rx="14" fill="#24282E"/>
  <g transform="translate(19.3 15) scale(1.19)">
    <path d="M12 28.6C11.3067 28.6 10.5733 28.5333 9.8 28.4C9.05333 28.2667 8.30667 28.0133 7.56 27.64C6.84 27.24 6.16 26.68 5.52 25.96L5.48 28.32H0V0H5.6V9.72C6.4 8.76 7.38667 8.05333 8.56 7.6C9.76 7.12 11 6.88 12.28 6.88C14.36 6.88 16.0667 7.36 17.4 8.32C18.7333 9.25333 19.72 10.5333 20.36 12.16C21.0267 13.7867 21.36 15.6533 21.36 17.76C21.36 19.8133 21.0267 21.6667 20.36 23.32C19.6933 24.9467 18.6667 26.24 17.28 27.2C15.92 28.1333 14.16 28.6 12 28.6ZM10.8 23.6C12.1067 23.6 13.12 23.3067 13.84 22.72C14.56 22.1333 15.0667 21.3867 15.36 20.48C15.6533 19.5733 15.8 18.6267 15.8 17.64C15.8 16.6533 15.64 15.7333 15.32 14.88C15 14 14.4667 13.3067 13.72 12.8C13 12.2667 12.0267 12 10.8 12C9.68 12 8.72 12.28 7.92 12.84C7.14667 13.3733 6.56 14.08 6.16 14.96C5.76 15.84 5.56 16.7867 5.56 17.8C5.56 18.8133 5.73333 19.7733 6.08 20.68C6.45333 21.56 7.02667 22.2667 7.8 22.8C8.57333 23.3333 9.57333 23.6 10.8 23.6Z" fill="#F1531E"/>
  </g>
</svg>
